<?xml version="1.0" encoding="UTF-8"?>
<svg xmlns="http://www.w3.org/2000/svg" viewBox="0 0 942 790" width="942" height="790">
  <rect width="100%" height="100%" fill="#f9f6f1" />
  <text x="20" y="30" font-family="Inter, sans-serif" font-size="16" font-weight="700" fill="#1d1a14">Asymmetric in-laws (regression)</text>
  <text x="20" y="48" font-family="Inter, sans-serif" font-size="11" fill="#5b5346">11 people · 10 edges · 4 unions</text>
  <path d="M 289.2 290.0 L 469.2 290.0" stroke="#b08e51" stroke-width="2" fill="none"  stroke-linecap="round" stroke-linejoin="round" />
  <path d="M 379.2 330.0 L 379.2 365.0 L 140.0 365.0 L 140.0 400.0" stroke="#b7ad98" stroke-width="1.2" fill="none"  stroke-linecap="round" stroke-linejoin="round" />
  <path d="M 379.2 330.0 L 379.2 365.0 L 292.0 365.0 L 292.0 400.0" stroke="#b7ad98" stroke-width="1.2" fill="none"  stroke-linecap="round" stroke-linejoin="round" />
  <path d="M 379.2 330.0 L 379.2 365.0 L 444.0 365.0 L 444.0 400.0" stroke="#b7ad98" stroke-width="1.2" fill="none"  stroke-linecap="round" stroke-linejoin="round" />
  <path d="M 444.0 440.0 L 624.0 440.0" stroke="#b08e51" stroke-width="2" fill="none"  stroke-linecap="round" stroke-linejoin="round" />
  <path d="M 534.0 480.0 L 534.0 515.0 L 466.4 515.0 L 466.4 550.0" stroke="#b7ad98" stroke-width="1.2" fill="none"  stroke-linecap="round" stroke-linejoin="round" />
  <path d="M 534.0 480.0 L 534.0 515.0 L 618.4 515.0 L 618.4 550.0" stroke="#b7ad98" stroke-width="1.2" fill="none"  stroke-linecap="round" stroke-linejoin="round" />
  <path d="M 621.2 290.0 L 801.2 290.0" stroke="#b08e51" stroke-width="2" fill="none"  stroke-linecap="round" stroke-linejoin="round" />
  <path d="M 711.2 330.0 L 711.2 365.0 L 624.0 365.0 L 624.0 400.0" stroke="#b7ad98" stroke-width="1.2" fill="none"  stroke-linecap="round" stroke-linejoin="round" />
  <path d="M 576.2 180.0 L 576.2 215.0 L 621.2 215.0 L 621.2 250.0" stroke="#b7ad98" stroke-width="1.2" fill="none"  stroke-linecap="round" stroke-linejoin="round" />
  
  <g>
    <circle cx="289.2" cy="290.0" r="40"
            fill="#fffaf2" stroke="#82693c" stroke-width="3" />
    <text x="289.2" y="346.0" font-family="Inter, sans-serif" font-size="12" font-weight="600" text-anchor="middle" fill="#1d1a14">Ayah aku</text>
    
  </g>
  <g>
    <circle cx="469.2" cy="290.0" r="40"
            fill="#fffaf2" stroke="#82693c" stroke-width="3" />
    <text x="469.2" y="346.0" font-family="Inter, sans-serif" font-size="12" font-weight="600" text-anchor="middle" fill="#1d1a14">Ibu ku</text>
    
  </g>
  <g>
    <circle cx="140.0" cy="440.0" r="40"
            fill="#fffaf2" stroke="#1f6f62" stroke-width="3" />
    <text x="140.0" y="496.0" font-family="Inter, sans-serif" font-size="12" font-weight="600" text-anchor="middle" fill="#1d1a14">Adek ku</text>
    
  </g>
  <g>
    <circle cx="292.0" cy="440.0" r="40"
            fill="#fffaf2" stroke="#1f6f62" stroke-width="3" />
    <text x="292.0" y="496.0" font-family="Inter, sans-serif" font-size="12" font-weight="600" text-anchor="middle" fill="#1d1a14">Kakak ku</text>
    
  </g>
  <g>
    <circle cx="444.0" cy="440.0" r="40"
            fill="#fffaf2" stroke="#1f6f62" stroke-width="3" />
    <text x="444.0" y="496.0" font-family="Inter, sans-serif" font-size="12" font-weight="600" text-anchor="middle" fill="#1d1a14">Admin</text>
    
  </g>
  <g>
    <circle cx="576.2" cy="140.0" r="40"
            fill="#fffaf2" stroke="#b08e51" stroke-width="3" />
    <text x="576.2" y="196.0" font-family="Inter, sans-serif" font-size="12" font-weight="600" text-anchor="middle" fill="#1d1a14">Kakek istri</text>
    
  </g>
  <g>
    <circle cx="621.2" cy="290.0" r="40"
            fill="#fffaf2" stroke="#82693c" stroke-width="3" />
    <text x="621.2" y="346.0" font-family="Inter, sans-serif" font-size="12" font-weight="600" text-anchor="middle" fill="#1d1a14">Ayah istri</text>
    
  </g>
  <g>
    <circle cx="801.2" cy="290.0" r="40"
            fill="#fffaf2" stroke="#82693c" stroke-width="3" />
    <text x="801.2" y="346.0" font-family="Inter, sans-serif" font-size="12" font-weight="600" text-anchor="middle" fill="#1d1a14">Ibu istri</text>
    
  </g>
  <g>
    <circle cx="624.0" cy="440.0" r="40"
            fill="#fffaf2" stroke="#1f6f62" stroke-width="3" />
    <text x="624.0" y="496.0" font-family="Inter, sans-serif" font-size="12" font-weight="600" text-anchor="middle" fill="#1d1a14">Istri ku</text>
    
  </g>
  <g>
    <circle cx="466.4" cy="590.0" r="40"
            fill="#fffaf2" stroke="#8b5cf6" stroke-width="3" />
    <text x="466.4" y="646.0" font-family="Inter, sans-serif" font-size="12" font-weight="600" text-anchor="middle" fill="#1d1a14">Anak pertama</text>
    
  </g>
  <g>
    <circle cx="618.4" cy="590.0" r="40"
            fill="#fffaf2" stroke="#8b5cf6" stroke-width="3" />
    <text x="618.4" y="646.0" font-family="Inter, sans-serif" font-size="12" font-weight="600" text-anchor="middle" fill="#1d1a14">Anak kedua</text>
    
  </g>
  
  <g font-family="Inter, sans-serif" font-size="11" fill="#5b5346">
    <line x1="20" y1="766" x2="50" y2="766" stroke="#b08e51" stroke-width="2" />
    <text x="55" y="770">spouse</text>
    <line x1="120" y1="766" x2="150" y2="766" stroke="#b7ad98" stroke-width="1.2" />
    <text x="155" y="770">parent→child</text>
    <line x1="240" y1="766" x2="270" y2="766" stroke="#8b5cf6" stroke-width="1.6" stroke-dasharray="6 4" />
    <text x="275" y="770">adoption</text>
  </g>
</svg>