<?xml version="1.0" encoding="UTF-8"?>
<svg xmlns="http://www.w3.org/2000/svg" viewBox="0 0 1192 790" width="1192" height="790">
  <rect width="100%" height="100%" fill="#f9f6f1" />
  <text x="20" y="30" font-family="Inter, sans-serif" font-size="16" font-weight="700" fill="#1d1a14">Genghis Khan lineage</text>
  <text x="20" y="48" font-family="Inter, sans-serif" font-size="11" fill="#5b5346">16 people · 15 edges · 5 unions</text>
  <path d="M 481.0 140.0 L 661.0 140.0" stroke="#b08e51" stroke-width="2" fill="none"  stroke-linecap="round" stroke-linejoin="round" />
  <path d="M 571.0 180.0 L 571.0 215.0 L 481.0 215.0 L 481.0 250.0" stroke="#b7ad98" stroke-width="1.2" fill="none"  stroke-linecap="round" stroke-linejoin="round" />
  <path d="M 301.0 290.0 L 481.0 290.0" stroke="#b08e51" stroke-width="2" fill="none"  stroke-linecap="round" stroke-linejoin="round" />
  <path d="M 391.0 330.0 L 391.0 365.0 L 172.5 365.0 L 172.5 400.0" stroke="#b7ad98" stroke-width="1.2" fill="none"  stroke-linecap="round" stroke-linejoin="round" />
  <path d="M 391.0 330.0 L 391.0 365.0 L 324.5 365.0 L 324.5 400.0" stroke="#b7ad98" stroke-width="1.2" fill="none"  stroke-linecap="round" stroke-linejoin="round" />
  <path d="M 391.0 330.0 L 391.0 365.0 L 476.5 365.0 L 476.5 400.0" stroke="#b7ad98" stroke-width="1.2" fill="none"  stroke-linecap="round" stroke-linejoin="round" />
  <path d="M 391.0 330.0 L 391.0 365.0 L 808.5 365.0 L 808.5 400.0" stroke="#b7ad98" stroke-width="1.2" fill="none"  stroke-linecap="round" stroke-linejoin="round" />
  <path d="M 628.5 440.0 L 808.5 440.0" stroke="#b08e51" stroke-width="2" fill="none"  stroke-linecap="round" stroke-linejoin="round" />
  <path d="M 718.5 480.0 L 718.5 515.0 L 596.0 515.0 L 596.0 550.0" stroke="#b7ad98" stroke-width="1.2" fill="none"  stroke-linecap="round" stroke-linejoin="round" />
  <path d="M 718.5 480.0 L 718.5 515.0 L 748.0 515.0 L 748.0 550.0" stroke="#b7ad98" stroke-width="1.2" fill="none"  stroke-linecap="round" stroke-linejoin="round" />
  <path d="M 718.5 480.0 L 718.5 515.0 L 900.0 515.0 L 900.0 550.0" stroke="#b7ad98" stroke-width="1.2" fill="none"  stroke-linecap="round" stroke-linejoin="round" />
  <path d="M 718.5 480.0 L 718.5 515.0 L 1052.0 515.0 L 1052.0 550.0" stroke="#b7ad98" stroke-width="1.2" fill="none"  stroke-linecap="round" stroke-linejoin="round" />
  <path d="M 172.5 480.0 L 172.5 515.0 L 140.0 515.0 L 140.0 550.0" stroke="#b7ad98" stroke-width="1.2" fill="none"  stroke-linecap="round" stroke-linejoin="round" />
  <path d="M 172.5 480.0 L 172.5 515.0 L 292.0 515.0 L 292.0 550.0" stroke="#b7ad98" stroke-width="1.2" fill="none"  stroke-linecap="round" stroke-linejoin="round" />
  <path d="M 476.5 480.0 L 476.5 515.0 L 444.0 515.0 L 444.0 550.0" stroke="#b7ad98" stroke-width="1.2" fill="none"  stroke-linecap="round" stroke-linejoin="round" />
  
  <g>
    <circle cx="661.0" cy="140.0" r="40"
            fill="#fffaf2" stroke="#b08e51" stroke-width="3" />
    <text x="661.0" y="196.0" font-family="Inter, sans-serif" font-size="12" font-weight="600" text-anchor="middle" fill="#1d1a14">Yesügei</text>
    
  </g>
  <g>
    <circle cx="481.0" cy="140.0" r="40"
            fill="#fffaf2" stroke="#b08e51" stroke-width="3" />
    <text x="481.0" y="196.0" font-family="Inter, sans-serif" font-size="12" font-weight="600" text-anchor="middle" fill="#1d1a14">Hö'elün</text>
    
  </g>
  <g>
    <circle cx="481.0" cy="290.0" r="40"
            fill="#fffaf2" stroke="#82693c" stroke-width="3" />
    <text x="481.0" y="346.0" font-family="Inter, sans-serif" font-size="12" font-weight="600" text-anchor="middle" fill="#1d1a14">Genghis Khan (Temüjin)</text>
    <text x="481.0" y="362.0" font-family="Inter, sans-serif" font-size="10" text-anchor="middle" fill="#5b5346">1162–1227</text>
  </g>
  <g>
    <circle cx="301.0" cy="290.0" r="40"
            fill="#fffaf2" stroke="#82693c" stroke-width="3" />
    <text x="301.0" y="346.0" font-family="Inter, sans-serif" font-size="12" font-weight="600" text-anchor="middle" fill="#1d1a14">Börte</text>
    <text x="301.0" y="362.0" font-family="Inter, sans-serif" font-size="10" text-anchor="middle" fill="#5b5346">1161–1230</text>
  </g>
  <g>
    <circle cx="172.5" cy="440.0" r="40"
            fill="#fffaf2" stroke="#1f6f62" stroke-width="3" />
    <text x="172.5" y="496.0" font-family="Inter, sans-serif" font-size="12" font-weight="600" text-anchor="middle" fill="#1d1a14">Jochi</text>
    <text x="172.5" y="512.0" font-family="Inter, sans-serif" font-size="10" text-anchor="middle" fill="#5b5346">1182–1227</text>
  </g>
  <g>
    <circle cx="324.5" cy="440.0" r="40"
            fill="#fffaf2" stroke="#1f6f62" stroke-width="3" />
    <text x="324.5" y="496.0" font-family="Inter, sans-serif" font-size="12" font-weight="600" text-anchor="middle" fill="#1d1a14">Chagatai</text>
    <text x="324.5" y="512.0" font-family="Inter, sans-serif" font-size="10" text-anchor="middle" fill="#5b5346">1183–1242</text>
  </g>
  <g>
    <circle cx="476.5" cy="440.0" r="40"
            fill="#fffaf2" stroke="#1f6f62" stroke-width="3" />
    <text x="476.5" y="496.0" font-family="Inter, sans-serif" font-size="12" font-weight="600" text-anchor="middle" fill="#1d1a14">Ögedei</text>
    <text x="476.5" y="512.0" font-family="Inter, sans-serif" font-size="10" text-anchor="middle" fill="#5b5346">1186–1241</text>
  </g>
  <g>
    <circle cx="808.5" cy="440.0" r="40"
            fill="#fffaf2" stroke="#1f6f62" stroke-width="3" />
    <text x="808.5" y="496.0" font-family="Inter, sans-serif" font-size="12" font-weight="600" text-anchor="middle" fill="#1d1a14">Tolui</text>
    <text x="808.5" y="512.0" font-family="Inter, sans-serif" font-size="10" text-anchor="middle" fill="#5b5346">1191–1232</text>
  </g>
  <g>
    <circle cx="628.5" cy="440.0" r="40"
            fill="#fffaf2" stroke="#1f6f62" stroke-width="3" />
    <text x="628.5" y="496.0" font-family="Inter, sans-serif" font-size="12" font-weight="600" text-anchor="middle" fill="#1d1a14">Sorghaghtani Beki</text>
    
  </g>
  <g>
    <circle cx="140.0" cy="590.0" r="40"
            fill="#fffaf2" stroke="#8b5cf6" stroke-width="3" />
    <text x="140.0" y="646.0" font-family="Inter, sans-serif" font-size="12" font-weight="600" text-anchor="middle" fill="#1d1a14">Orda Khan (White Hord…</text>
    <text x="140.0" y="662.0" font-family="Inter, sans-serif" font-size="10" text-anchor="middle" fill="#5b5346">1204–1251</text>
  </g>
  <g>
    <circle cx="292.0" cy="590.0" r="40"
            fill="#fffaf2" stroke="#8b5cf6" stroke-width="3" />
    <text x="292.0" y="646.0" font-family="Inter, sans-serif" font-size="12" font-weight="600" text-anchor="middle" fill="#1d1a14">Batu Khan (Golden Hor…</text>
    <text x="292.0" y="662.0" font-family="Inter, sans-serif" font-size="10" text-anchor="middle" fill="#5b5346">1205–1255</text>
  </g>
  <g>
    <circle cx="444.0" cy="590.0" r="40"
            fill="#fffaf2" stroke="#8b5cf6" stroke-width="3" />
    <text x="444.0" y="646.0" font-family="Inter, sans-serif" font-size="12" font-weight="600" text-anchor="middle" fill="#1d1a14">Güyük Khan</text>
    <text x="444.0" y="662.0" font-family="Inter, sans-serif" font-size="10" text-anchor="middle" fill="#5b5346">1206–1248</text>
  </g>
  <g>
    <circle cx="596.0" cy="590.0" r="40"
            fill="#fffaf2" stroke="#8b5cf6" stroke-width="3" />
    <text x="596.0" y="646.0" font-family="Inter, sans-serif" font-size="12" font-weight="600" text-anchor="middle" fill="#1d1a14">Möngke Khan</text>
    <text x="596.0" y="662.0" font-family="Inter, sans-serif" font-size="10" text-anchor="middle" fill="#5b5346">1209–1259</text>
  </g>
  <g>
    <circle cx="748.0" cy="590.0" r="40"
            fill="#fffaf2" stroke="#8b5cf6" stroke-width="3" />
    <text x="748.0" y="646.0" font-family="Inter, sans-serif" font-size="12" font-weight="600" text-anchor="middle" fill="#1d1a14">Kublai Khan (Yuan)</text>
    <text x="748.0" y="662.0" font-family="Inter, sans-serif" font-size="10" text-anchor="middle" fill="#5b5346">1215–1294</text>
  </g>
  <g>
    <circle cx="900.0" cy="590.0" r="40"
            fill="#fffaf2" stroke="#8b5cf6" stroke-width="3" />
    <text x="900.0" y="646.0" font-family="Inter, sans-serif" font-size="12" font-weight="600" text-anchor="middle" fill="#1d1a14">Hülegü (Ilkhanate)</text>
    <text x="900.0" y="662.0" font-family="Inter, sans-serif" font-size="10" text-anchor="middle" fill="#5b5346">1217–1265</text>
  </g>
  <g>
    <circle cx="1052.0" cy="590.0" r="40"
            fill="#fffaf2" stroke="#8b5cf6" stroke-width="3" />
    <text x="1052.0" y="646.0" font-family="Inter, sans-serif" font-size="12" font-weight="600" text-anchor="middle" fill="#1d1a14">Ariq Böke</text>
    <text x="1052.0" y="662.0" font-family="Inter, sans-serif" font-size="10" text-anchor="middle" fill="#5b5346">1219–1266</text>
  </g>
  
  <g font-family="Inter, sans-serif" font-size="11" fill="#5b5346">
    <line x1="20" y1="766" x2="50" y2="766" stroke="#b08e51" stroke-width="2" />
    <text x="55" y="770">spouse</text>
    <line x1="120" y1="766" x2="150" y2="766" stroke="#b7ad98" stroke-width="1.2" />
    <text x="155" y="770">parent→child</text>
    <line x1="240" y1="766" x2="270" y2="766" stroke="#8b5cf6" stroke-width="1.6" stroke-dasharray="6 4" />
    <text x="275" y="770">adoption</text>
  </g>
</svg>